{
  "asset": {
    "generator": "Khronos glTF Blender I/O v1.0.5",
    "version": "2.0"
  },
  "scene": 0,
  "scenes": [
    {
      "name": "Scene",
      "nodes": [0, 1, 2]
    }
  ],
  "nodes": [
    {
      "name": "Light",
      "rotation": [
        0.16907575726509094,
        0.7558803558349609,
        -0.27217137813568115,
        0.570947527885437
      ],
      "translation": [4.076245307922363, 5.903861999511719, -1.0054539442062378]
    },
    {
      "name": "Camera",
      "rotation": [
        0.483536034822464,
        0.33687159419059753,
        -0.20870360732078552,
        0.7804827094078064
      ],
      "translation": [7.358891487121582, 4.958309173583984, 6.925790786743164]
    },
    {
      "mesh": 0,
      "name": "KastZonderSchroeven 163  x 117 v2",
      "rotation": [0.7071067690849304, 0, 0, 0.7071067690849304],
      "translation": [-203.6910400390625, 258.0054626464844, 21.343040466308594]
    }
  ],
  "materials": [
    {
      "doubleSided": true,
      "name": "Leather_-_Matte_(Tan)",
      "pbrMetallicRoughness": {
        "baseColorFactor": [
          0.800000011920929,
          0.800000011920929,
          0.800000011920929,
          1
        ],
        "metallicFactor": 0,
        "roughnessFactor": 0.5
      }
    },
    {
      "doubleSided": true,
      "name": "Leather_-_Matte_(Green)",
      "pbrMetallicRoughness": {
        "baseColorFactor": [
          0.800000011920929,
          0.800000011920929,
          0.800000011920929,
          1
        ],
        "metallicFactor": 0,
        "roughnessFactor": 0.5
      }
    }
  ],
  "meshes": [
    {
      "name": "KastZonderSchroeven 163  x 117 v2",
      "primitives": [
        {
          "attributes": {
            "POSITION": 0,
            "NORMAL": 1,
            "TEXCOORD_0": 2
          },
          "indices": 3,
          "material": 0
        },
        {
          "attributes": {
            "POSITION": 4,
            "NORMAL": 5,
            "TEXCOORD_0": 6
          },
          "indices": 7,
          "material": 1
        }
      ]
    }
  ],
  "accessors": [
    {
      "bufferView": 0,
      "componentType": 5126,
      "count": 2832,
      "max": [1633.199951171875, 1054, 27.794530868530273],
      "min": [0, -120, -500],
      "type": "VEC3"
    },
    {
      "bufferView": 1,
      "componentType": 5126,
      "count": 2832,
      "type": "VEC3"
    },
    {
      "bufferView": 2,
      "componentType": 5126,
      "count": 2832,
      "type": "VEC2"
    },
    {
      "bufferView": 3,
      "componentType": 5123,
      "count": 7452,
      "type": "SCALAR"
    },
    {
      "bufferView": 4,
      "componentType": 5126,
      "count": 1590,
      "max": [1583.9000244140625, 1076, 9],
      "min": [32.29999923706055, -2.9999849796295166, 0],
      "type": "VEC3"
    },
    {
      "bufferView": 5,
      "componentType": 5126,
      "count": 1590,
      "type": "VEC3"
    },
    {
      "bufferView": 6,
      "componentType": 5126,
      "count": 1590,
      "type": "VEC2"
    },
    {
      "bufferView": 7,
      "componentType": 5123,
      "count": 3924,
      "type": "SCALAR"
    }
  ],
  "bufferViews": [
    {
      "buffer": 0,
      "byteLength": 33984,
      "byteOffset": 0
    },
    {
      "buffer": 0,
      "byteLength": 33984,
      "byteOffset": 33984
    },
    {
      "buffer": 0,
      "byteLength": 22656,
      "byteOffset": 67968
    },
    {
      "buffer": 0,
      "byteLength": 14904,
      "byteOffset": 90624
    },
    {
      "buffer": 0,
      "byteLength": 19080,
      "byteOffset": 105528
    },
    {
      "buffer": 0,
      "byteLength": 19080,
      "byteOffset": 124608
    },
    {
      "buffer": 0,
      "byteLength": 12720,
      "byteOffset": 143688
    },
    {
      "buffer": 0,
      "byteLength": 7848,
      "byteOffset": 156408
    }
  ],
  "buffers": [
    {
      "byteLength": 164256,
      "uri": "data:application/octet-stream;base64,"
    }
  ]
}
